<?xml version="1.0" encoding="UTF-8"?>
<svg id="svg602" xmlns="http://www.w3.org/2000/svg" version="1.1" xmlns:cc="http://web.resource.org/cc/" xmlns:dc="http://purl.org/dc/elements/1.1/" xmlns:inkscape="http://www.inkscape.org/namespaces/inkscape" xmlns:ns1="http://sozi.baierouge.fr" xmlns:rdf="http://www.w3.org/1999/02/22-rdf-syntax-ns#" xmlns:sodipodi="http://sodipodi.sourceforge.net/DTD/sodipodi-0.dtd" xmlns:svg="http://www.w3.org/2000/svg" xmlns:xlink="http://www.w3.org/1999/xlink" viewBox="0 0 170.61 320.44">
  <!-- Generator: Adobe Illustrator 29.8.1, SVG Export Plug-In . SVG Version: 2.1.1 Build 2)  -->
  <defs>
    <style>
      .st0 {
        fill: url(#radial-gradient);
        stroke-width: 1.12px;
      }

      .st0, .st1, .st2, .st3 {
        stroke: #000;
      }

      .st0, .st1, .st3 {
        fill-rule: evenodd;
      }

      .st1 {
        fill: url(#linear-gradient);
      }

      .st2 {
        stroke-width: 1.25px;
      }

      .st2, .st3 {
        fill: none;
      }

      .st2, .st3, .st4 {
        opacity: .5;
      }

      .st4 {
        fill: red;
      }
    </style>
    <radialGradient id="radial-gradient" cx="-1755.89" cy="142.44" fx="-1755.89" fy="142.44" r="1.08" gradientTransform="translate(297529.88 -45425.11) scale(169.43 319.22)" gradientUnits="userSpaceOnUse">
      <stop offset="0" stop-color="#fff"/>
      <stop offset="1" stop-color="#333"/>
    </radialGradient>
    <linearGradient id="linear-gradient" x1="-1690.83" y1="153.53" x2="-1690.83" y2="154.53" gradientTransform="translate(39194.47 -8024.99) scale(23.13 52.51)" gradientUnits="userSpaceOnUse">
      <stop offset="0" stop-color="#b3b3eb" stop-opacity="0"/>
      <stop offset="1" stop-color="#000"/>
    </linearGradient>
  </defs>
  <sodipodi:namedview id="base"/>
  <path id="body" class="st0" d="M85.3,319.83C12.06,319.83.98,254.81,1.74,234.21c1.13-19.43,2.06-97.59-1.17-163.4C1.4-1.11,56.34.61,85.28.61s83.89-1.72,84.72,70.2c-3.24,65.81-2.3,143.97-1.17,163.4.75,20.6-10.32,85.61-83.56,85.61" sodipodi:nodetypes="ccccccccccccccccc"/>
  <path id="MMB" class="st3" d="M100.82,61.51v1.67c-.17,23.47-7.09,42.19-15.55,42.29-.13,0-.25,0-.38,0-8.63-.46-15.49-20.14-15.32-43.95v-1.67c.17-23.6,7.17-42.4,15.7-42.29.08,0,.16,0,.23.01,8.63.46,15.49,20.14,15.32,43.95Z"/>
  <path id="scroll_x5F_wheel" class="st1" d="M97.08,60.89c0-14.5-5.18-26.26-11.56-26.26s-11.57,11.76-11.57,26.26h0c0,14.5,5.18,26.26,11.56,26.26s11.57-11.76,11.57-26.26Z" sodipodi:cx="117.8125" sodipodi:cy="257.121033" sodipodi:rx="11.5625" sodipodi:ry="26.25" sodipodi:type="arc"/>
  <path id="RMB" class="st2" d="M101.27,59.84v1.67c.17,23.81-6.69,43.49-15.32,43.95-.13,0-.25,0-.38,0v14.08c82.35,0,80.49,3.3,82.95,3.92.35-17.55.91-35.53,1.75-52.66C169.44-1.1,114.51.61,85.57.61v16.94c8.53-.11,15.53,18.69,15.7,42.29Z"/>
  <path id="LMB" class="st2" d="M69.57,59.84v1.67c-.17,23.81,6.69,43.49,15.32,43.95.13,0,.25,0,.38,0v14.08c-82.35,0-80.49,3.3-82.95,3.92-.35-17.55-.91-35.53-1.75-52.66C1.4-1.1,56.33.61,85.27.61v16.94c-8.53-.11-15.53,18.69-15.7,42.29Z"/>
  <g>
    <path d="M83.87,32.96c5.64-.86,11.07,4.13,12.88,11.86,1.21,5.16,1.05,24.08.71,30.22-1.09,19.91-19.69,22.74-23.83,5.12-1.19-5.07-1.07-24.69-.71-30.73.51-8.56,4.95-15.55,10.94-16.46ZM77.33,38.62c-1.4,1.95-3.04,6.01-3.29,8.81-.48,5.32-.53,25.91.13,30.93,2.14,16.28,20.41,16.12,22.12-.92.63-6.24.5-22.02.11-28.53-.8-13.31-12.35-19.62-19.07-10.29Z"/>
    <g>
      <path d="M95.67,20.76c-.58.15-.95-.4-1.39-.81-1.42-1.33-8.5-10.92-9.09-10.92l-9.95,11.72c-.52.14-.63,0-.53-.76.19-1.45,9.02-10.96,10.48-12.55l9.89,11.35.59,1.96Z"/>
      <path d="M95.67,14.62c-.75.28-.96-.32-1.43-.75-3.05-2.79-5.78-7.92-9.05-10.52-.95,0-7.68,9.37-9.22,10.78-.34.31-.98.97-1.26.23,2.91-5.12,6.94-8.85,10.48-13.06,2.92,3.57,6.31,6.69,9.06,10.5.29.4,1.81,2.31,1.41,2.82Z"/>
    </g>
    <g>
      <path d="M95.67,101.35c-.58-.15-.95.4-1.39.81-1.42,1.33-8.5,10.92-9.09,10.92l-9.95-11.72c-.52-.14-.63,0-.53.76.19,1.45,9.02,10.96,10.48,12.55l9.89-11.35.59-1.96Z"/>
      <path d="M95.67,107.49c-.75-.28-.96.32-1.43.75-3.05,2.79-5.78,7.92-9.05,10.52-.95,0-7.68-9.37-9.22-10.78-.34-.31-.98-.97-1.26-.23,2.91,5.12,6.94,8.85,10.48,13.06,2.92-3.57,6.31-6.69,9.06-10.5.29-.4,1.81-2.31,1.41-2.82Z"/>
    </g>
    <path class="st4" d="M77.33,38.62c6.71-9.33,18.27-3.02,19.07,10.29.39,6.51.52,22.29-.11,28.53-1.71,17.04-19.98,17.21-22.12.92-.66-5.02-.61-25.61-.13-30.93.25-2.8,1.89-6.86,3.29-8.81ZM86.36,56.21c.73-1.06.75-9.5-.26-10.37l-1.55-.18c-1.37.65-1.22,9.49-.51,10.54.49.72,1.81.74,2.32,0Z"/>
    <path d="M86.36,56.21c-.51.74-1.83.72-2.32,0-.72-1.05-.87-9.89.51-10.54l1.55.18c1.01.87.99,9.31.26,10.37Z"/>
  </g>
</svg>